<svg width="36" height="36" viewBox="0 0 36 36" fill="none" xmlns="http://www.w3.org/2000/svg">
<path d="M18.0324 0.134949C8.11102 0.134949 0.0657654 8.31588 0.0657654 18.4084C0.0657654 26.4822 5.21377 33.3319 12.3525 35.7482C13.2504 35.9174 13.58 35.3518 13.58 34.8692C13.58 34.4334 13.5634 32.9939 13.5557 31.467C8.5573 32.5724 7.50259 29.3109 7.50259 29.3109C6.6853 27.1987 5.50772 26.6371 5.50772 26.6371C3.8776 25.5029 5.63059 25.5262 5.63059 25.5262C7.43476 25.6548 8.38474 27.4093 8.38474 27.4093C9.98719 30.203 12.5878 29.3953 13.6131 28.9284C13.7743 27.7477 14.2399 26.9409 14.7538 26.4849C10.7631 26.0228 6.56808 24.4559 6.56808 17.4539C6.56808 15.4589 7.26993 13.8287 8.41925 12.549C8.23271 12.0885 7.61773 10.2302 8.5933 7.71309C8.5933 7.71309 10.102 7.22196 13.5354 9.58621C14.9686 9.18133 16.5056 8.97828 18.0324 8.97132C19.5593 8.97828 21.0975 9.18133 22.5333 9.58621C25.9626 7.22196 27.4692 7.71309 27.4692 7.71309C28.4472 10.2302 27.8319 12.0885 27.6453 12.549C28.7973 13.8287 29.4944 15.4589 29.4944 17.4539C29.4944 24.4726 25.2914 26.018 21.2906 26.4704C21.935 27.0374 22.5092 28.1495 22.5092 29.8544C22.5092 32.2991 22.4884 34.267 22.4884 34.8692C22.4884 35.3555 22.8118 35.9253 23.7225 35.7458C30.8574 33.3268 35.9988 26.4794 35.9988 18.4084C35.9988 8.31588 27.9548 0.134949 18.0324 0.134949Z" fill="#383D38"/>
<path d="M6.87067 26.3717C6.8311 26.4628 6.69067 26.4897 6.56273 26.4274C6.43242 26.3678 6.35923 26.244 6.40148 26.1529C6.44015 26.0594 6.58088 26.0337 6.7109 26.0957C6.84151 26.1556 6.91589 26.2806 6.87067 26.3717Z" fill="#383D38"/>
<path d="M7.59841 27.1972C7.51272 27.278 7.34522 27.2405 7.23156 27.1128C7.11404 26.9854 7.09203 26.8151 7.1789 26.7331C7.26727 26.6523 7.42971 26.6901 7.54753 26.8175C7.66505 26.9464 7.68796 27.1155 7.59841 27.1972Z" fill="#383D38"/>
<path d="M8.3068 28.2497C8.19672 28.3275 8.01672 28.2545 7.90545 28.092C7.79537 27.9295 7.79537 27.7347 7.90783 27.6566C8.0194 27.5785 8.19672 27.6487 8.30948 27.81C8.41927 27.9749 8.41927 28.1701 8.3068 28.2497Z" fill="#383D38"/>
<path d="M9.27729 29.2664C9.17881 29.3769 8.96906 29.3472 8.81554 29.1965C8.65845 29.0492 8.61471 28.8401 8.71349 28.7296C8.81316 28.6189 9.0241 28.65 9.17881 28.7995C9.33471 28.9466 9.38232 29.1572 9.27729 29.2664Z" fill="#383D38"/>
<path d="M10.6161 29.8568C10.5727 30 10.3707 30.065 10.1672 30.0042C9.96397 29.9416 9.83098 29.7739 9.87204 29.6293C9.91429 29.4852 10.1172 29.4174 10.3222 29.4825C10.5251 29.5448 10.6584 29.7113 10.6161 29.8568Z" fill="#383D38"/>
<path d="M12.0865 29.9663C12.0915 30.117 11.919 30.242 11.7054 30.2444C11.4906 30.2496 11.3168 30.1276 11.3144 29.9794C11.3144 29.8272 11.4831 29.7034 11.6979 29.6998C11.9115 29.6955 12.0865 29.8166 12.0865 29.9663Z" fill="#383D38"/>
<path d="M13.4548 29.7294C13.4804 29.8765 13.3319 30.0275 13.1198 30.0675C12.9112 30.1065 12.7181 30.0157 12.6916 29.8699C12.6658 29.7192 12.8169 29.5682 13.0252 29.5291C13.2376 29.4916 13.4277 29.58 13.4548 29.7294Z" fill="#383D38"/>
</svg>
