<svg width="36" height="36" viewBox="0 0 36 36" fill="none" xmlns="http://www.w3.org/2000/svg">
<path d="M18.041 0H17.959C8.04052 0 0 7.84512 0 17.5226V17.6025C0 27.28 8.04052 35.1251 17.959 35.1251H18.041C27.9595 35.1251 36 27.28 36 17.6025V17.5226C36 7.84512 27.9595 0 18.041 0Z" fill="#383D38"/>
<path d="M23.5703 7.14612H12.4309C9.35347 7.14612 6.84988 9.58886 6.84988 12.5915V22.5348C6.84988 25.5375 9.35347 27.9802 12.4309 27.9802H23.5703C26.6478 27.9802 29.1514 25.5375 29.1514 22.5348V12.5915C29.1514 9.58886 26.6478 7.14612 23.5703 7.14612ZM8.8187 12.5915C8.8187 10.6484 10.4394 9.06709 12.4309 9.06709H23.5703C25.5619 9.06709 27.1826 10.6484 27.1826 12.5915V22.5348C27.1826 24.4779 25.5619 26.0593 23.5703 26.0593H12.4309C10.4394 26.0593 8.8187 24.4779 8.8187 22.5348V12.5915Z" fill="white"/>
<path d="M18.0007 22.6271C20.8624 22.6271 23.192 20.3554 23.192 17.562C23.192 14.7685 20.8637 12.4968 18.0007 12.4968C15.1376 12.4968 12.8093 14.7685 12.8093 17.562C12.8093 20.3554 15.1376 22.6271 18.0007 22.6271ZM18.0007 14.419C19.7778 14.419 21.2232 15.8293 21.2232 17.5632C21.2232 19.2971 19.7778 20.7074 18.0007 20.7074C16.2235 20.7074 14.7781 19.2971 14.7781 17.5632C14.7781 15.8293 16.2235 14.419 18.0007 14.419Z" fill="white"/>
<path d="M23.6725 13.3151C24.4432 13.3151 25.0713 12.7035 25.0713 11.9504C25.0713 11.1973 24.4444 10.5857 23.6725 10.5857C22.9006 10.5857 22.2738 11.1973 22.2738 11.9504C22.2738 12.7035 22.9006 13.3151 23.6725 13.3151Z" fill="white"/>
</svg>
