<svg width="36" height="36" viewBox="0 0 36 36" fill="none" xmlns="http://www.w3.org/2000/svg">
<path d="M18.041 0H17.959C8.04053 0 0 7.84511 0 17.5225V17.6025C0 27.28 8.04053 35.1251 17.959 35.1251H18.041C27.9595 35.1251 36 27.28 36 17.6025V17.5225C36 7.84511 27.9595 0 18.041 0Z" fill="#383D38"/>
<path d="M8.58535 11.6747C8.11111 11.2452 7.87527 10.7136 7.87527 10.0811C7.87527 9.44857 8.11238 8.89357 8.58535 8.46286C9.05958 8.03338 9.67003 7.81802 10.418 7.81802C11.1659 7.81802 11.7524 8.03338 12.2253 8.46286C12.6996 8.89234 12.9354 9.43258 12.9354 10.0811C12.9354 10.7296 12.6983 11.2452 12.2253 11.6747C11.7511 12.1042 11.1495 12.3196 10.418 12.3196C9.68642 12.3196 9.05958 12.1042 8.58535 11.6747ZM12.5369 14.1384V27.3058H8.27256V14.1384H12.5369Z" fill="#FEFFFC"/>
<path d="M26.7323 15.4391C27.6618 16.4236 28.126 17.7748 28.126 19.4952V27.0732H24.0761V20.0293C24.0761 19.1617 23.8453 18.4873 23.3849 18.0074C22.9246 17.5275 22.304 17.2863 21.5271 17.2863C20.7502 17.2863 20.1296 17.5262 19.6693 18.0074C19.2089 18.4873 18.9781 19.1617 18.9781 20.0293V27.0732H14.9043V14.1015H18.9781V15.8218C19.3905 15.2484 19.9468 14.7955 20.6455 14.462C21.3442 14.1285 22.13 13.9624 23.004 13.9624C24.5604 13.9624 25.804 14.4546 26.7323 15.4379V15.4391Z" fill="#FEFFFC"/>
</svg>
