<svg width="36" height="36" viewBox="0 0 36 36" fill="none" xmlns="http://www.w3.org/2000/svg">
<path d="M18.0357 0H17.9537C8.03814 0 0 7.84281 0 17.5174V17.5974C0 27.2719 8.03814 35.1148 17.9537 35.1148H18.0357C27.9512 35.1148 35.9894 27.2719 35.9894 17.5974V17.5174C35.9894 7.84281 27.9512 0 18.0357 0Z" fill="#383D38"/>
<path d="M6.81631 16.9589C6.86675 16.9343 6.9172 16.9109 6.96638 16.8888C7.82126 16.5025 8.68749 16.1408 9.55245 15.7791C9.5991 15.7791 9.67726 15.7262 9.72139 15.709C9.78822 15.6807 9.85506 15.6536 9.92188 15.6253C10.0505 15.5712 10.1791 15.5183 10.3065 15.4642C10.5637 15.3571 10.8196 15.2501 11.0768 15.1431L12.6164 14.4996C13.6427 14.0715 14.6704 13.6422 15.6967 13.214C16.7231 12.7859 17.7507 12.3566 18.7771 11.9284C19.8034 11.5003 20.831 11.071 21.8574 10.6428C22.8838 10.2147 23.9114 9.78537 24.9378 9.35724C25.166 9.26129 25.4131 9.11857 25.6577 9.07675C25.8632 9.04107 26.0637 8.97218 26.2705 8.93404C26.6626 8.86146 27.0951 8.83193 27.4709 8.99063C27.6007 9.046 27.7205 9.1235 27.8201 9.22069C28.2967 9.6808 28.2299 10.4362 28.129 11.0833C27.4267 15.5933 26.7244 20.1046 26.0208 24.6147C25.925 25.2335 25.7939 25.9126 25.2933 26.3038C24.8696 26.6347 24.2669 26.6716 23.7437 26.5314C23.2204 26.3899 22.7589 26.0934 22.3063 25.8019C20.4288 24.5888 18.5501 23.3758 16.6727 22.1628C16.2263 21.8749 15.7295 21.4985 15.7346 20.9756C15.7371 20.6607 15.93 20.3802 16.1267 20.1305C17.7583 18.0538 20.1123 16.6267 21.8637 14.646C22.1108 14.3668 22.305 13.8624 21.9658 13.7012C21.7641 13.6053 21.5321 13.7357 21.348 13.8599C19.033 15.4285 16.7193 16.9983 14.4043 18.5668C13.6491 19.0786 12.8572 19.6051 11.9469 19.7306C11.1323 19.8438 10.3128 19.6224 9.52472 19.396C8.86401 19.2065 8.20455 19.0122 7.54763 18.8116C7.19836 18.7058 6.83775 18.5914 6.56792 18.3515C6.29809 18.1116 6.14302 17.7081 6.30568 17.3883C6.40781 17.1877 6.60577 17.061 6.81382 16.9577L6.81631 16.9589Z" fill="#FEFFFC"/>
</svg>
