<svg width="36" height="36" viewBox="0 0 36 36" fill="none" xmlns="http://www.w3.org/2000/svg">
<path fill-rule="evenodd" clip-rule="evenodd" d="M18 36C27.9411 36 36 27.9411 36 18C36 8.05887 27.9411 0 18 0C8.05887 0 0 8.05887 0 18C0 27.9411 8.05887 36 18 36ZM7.2 17.9996C7.2 12.0445 12.0452 7.2 17.9996 7.2C23.9548 7.2 28.8 12.0445 28.8 17.9996C28.8 23.9555 23.9548 28.7992 17.9996 28.7992C12.0452 28.7992 7.2 23.9548 7.2 17.9996Z" fill="#383D38"/>
<path fill-rule="evenodd" clip-rule="evenodd" d="M14.4717 8.79474C13.2962 9.24755 12.2305 9.91686 11.321 10.7562L11.3198 10.7594C11.3035 10.8016 11.288 10.8418 11.2776 10.8804C11.2402 11.0298 11.5391 10.9178 11.5391 10.9178L11.873 11.0664L12.2823 10.9178C12.2823 10.9178 12.3944 10.6944 12.6536 10.5092C12.8404 10.3753 12.8745 10.3178 12.9198 10.2416C12.9378 10.2114 12.9574 10.1783 12.989 10.1364C13.044 10.0632 13.0446 10.0627 13.0896 10.0177L13.0896 10.0177C13.1355 9.97174 13.2278 9.87952 13.4715 9.61651C13.9556 9.09509 14.2155 9.09585 14.2155 9.09585C14.2155 9.09585 14.3558 8.94339 14.4717 8.79474ZM15.7775 11.6237L15.6296 11.4011L15.7775 11.0664L16.1358 11.2097V10.5458L16.4781 10.3605L16.7624 10.7691L17.2 11.2532L16.9095 11.4758L16.135 11.6244V11.2303L15.7775 11.6237ZM20.9833 15.2301C20.9833 15.2301 20.699 15.0502 20.6121 15.1188C20.24 15.4169 19.384 15.2301 19.2003 15.1547C19.0135 15.08 18.9022 14.9694 18.9022 14.8574C18.9022 14.7453 18.7345 14.2064 18.7345 14.2064C18.7345 14.2064 18.3716 14.2712 18.2603 14.2712C18.149 14.2712 17.8563 14.1545 17.8563 14.1545C17.8563 14.1545 17.4858 14.1896 17.3372 14.2643C17.19 14.339 16.8927 14.4495 16.7815 14.4869C16.6702 14.5242 16.3736 14.5608 16.3736 14.5608C16.039 14.4122 15.779 14.7834 15.7035 14.9321C15.6744 14.9916 15.6332 15.0391 15.5941 15.0841C15.5351 15.1522 15.481 15.2146 15.481 15.3041C15.481 15.4535 15.2202 15.6761 15.1089 15.75C15.0874 15.7646 15.0545 15.7848 15.0147 15.8092C14.8501 15.9101 14.5674 16.0836 14.4778 16.2333C14.3657 16.4193 14.2544 16.6427 14.217 16.8287C14.1805 17.0147 14.1805 17.1634 14.1805 17.4233C14.1805 17.5162 14.1757 17.5949 14.1713 17.6681C14.1633 17.7996 14.1565 17.9127 14.1805 18.0568C14.2163 18.2786 14.5891 18.8366 14.7369 19.0234C14.8864 19.2094 15.0724 19.432 15.2591 19.5433C15.4436 19.6553 15.7051 19.8779 15.7051 19.8779C15.7051 19.8779 15.853 20.1005 16.1495 19.9892C16.2739 19.9426 16.398 19.9153 16.5192 19.8887C16.6892 19.8514 16.8537 19.8153 17.0063 19.7285C17.267 19.5806 17.6756 19.3939 17.6756 19.6172C17.6756 19.8406 17.8235 19.99 18.0469 19.9153C18.0824 19.9034 18.1216 19.8888 18.1623 19.8735C18.3779 19.793 18.6355 19.6967 18.6041 19.9153C18.5809 20.081 18.6174 20.2762 18.647 20.4351C18.6641 20.5262 18.6788 20.6053 18.6788 20.6601C18.6788 20.6898 18.6773 20.7197 18.6758 20.7494C18.6698 20.8661 18.664 20.9791 18.7528 21.0679C18.7875 21.1026 18.8405 21.1447 18.897 21.1896C19.0215 21.2884 19.1629 21.4007 19.1629 21.4773C19.1629 21.5878 19.1987 21.9598 19.2734 22.1092C19.3481 22.2586 19.4221 22.4812 19.3474 22.6299C19.2734 22.7785 19.1233 23.1879 19.1233 23.1879C19.1233 23.1879 19.0455 23.5218 19.0829 23.6331C19.1202 23.7459 19.1888 23.8938 19.3748 24.0798C19.4821 24.1866 19.5113 24.3064 19.5383 24.4172C19.5581 24.4984 19.5767 24.5749 19.6241 24.6378C19.7362 24.7864 19.849 25.2324 19.849 25.2324L19.8658 25.6044V25.9383C19.8658 25.9383 20.686 25.827 20.8346 25.7896C20.9833 25.7523 21.5649 25.4916 21.7128 25.3437C21.7794 25.2767 21.8104 25.2173 21.8409 25.1587C21.8784 25.0866 21.9152 25.0159 22.017 24.9343C22.2037 24.7864 22.5422 24.525 22.5422 24.525L22.5056 23.9677L22.9539 23.3739L23.2893 23.0385C23.2893 23.0385 23.5858 22.6299 23.5492 22.4812C23.5126 22.3326 23.4379 21.5886 23.4379 21.5886C23.4379 21.5886 23.5873 21.2539 23.6986 21.1053C23.7385 21.0513 23.7642 20.9926 23.7912 20.9309C23.8391 20.8217 23.891 20.703 24.0333 20.5846C24.222 20.4281 24.3568 20.2444 24.4617 20.1015L24.4617 20.1015C24.481 20.0753 24.4992 20.0504 24.5166 20.0273L24.5401 19.996C24.6568 19.8402 24.8561 19.574 24.9252 19.4701C24.9991 19.358 25.0746 19.0242 25.0746 19.0242L24.4038 19.1354C24.274 18.9185 24.0048 18.5503 23.7808 18.2439L23.7808 18.2439L23.7807 18.2438C23.6206 18.0248 23.4836 17.8373 23.4372 17.7595C23.3259 17.5735 23.2146 17.2015 23.1772 17.0528C23.1537 16.9596 23.0711 16.7624 23.0038 16.6013L23.0037 16.6013C22.9642 16.5067 22.9298 16.4247 22.9157 16.3835C22.889 16.3023 22.7438 16.1021 22.6382 15.9566L22.6382 15.9566C22.5991 15.9027 22.5654 15.8563 22.5453 15.8263C22.5017 15.7609 22.395 15.7082 22.284 15.6534C22.2048 15.6143 22.1234 15.5741 22.0612 15.5274C21.9125 15.4161 20.9833 15.2301 20.9833 15.2301ZM8.38768 20.192C8.4357 20.2042 8.50431 20.2393 8.60112 20.3254C8.74139 20.4474 8.82448 20.5099 9.01048 20.5854C9.10677 20.6246 9.17319 20.6731 9.24615 20.7264C9.31355 20.7756 9.38653 20.8288 9.49379 20.8827C9.53127 20.9015 9.56037 20.915 9.58427 20.9262L9.5843 20.9262C9.61705 20.9414 9.64 20.9521 9.66127 20.9655C9.71109 20.9968 9.75175 21.0426 9.88762 21.1959L9.93974 21.2547C10.1865 21.5311 10.2034 21.5787 10.2438 21.6929C10.2522 21.7166 10.2617 21.7432 10.2744 21.7753C10.3483 21.9621 10.4604 22.1466 10.5351 22.2594C10.5847 22.3332 10.6994 22.3906 10.8034 22.4427L10.8035 22.4427L10.8035 22.4427C10.8562 22.4692 10.9063 22.4942 10.9437 22.5193C11.055 22.594 11.241 22.668 11.3523 22.668C11.4056 22.668 11.5094 22.7438 11.6235 22.8272C11.7492 22.919 11.8875 23.0201 11.985 23.0392C12.171 23.0773 12.171 23.4493 12.171 23.4493L11.985 23.9692L11.8356 24.5265L11.985 24.9724C11.985 24.9724 11.7609 25.1592 11.6138 25.1592C11.5562 25.1592 11.5145 25.1745 11.4745 25.1893C11.4192 25.2096 11.367 25.2288 11.2799 25.2049C9.86198 23.8808 8.83363 22.1489 8.38768 20.192ZM24.8878 22.4073C24.8878 22.5186 24.8505 22.8166 24.8131 22.9653C24.7977 23.0245 24.7767 23.1014 24.7549 23.1818L24.7548 23.1821L24.7543 23.1839L24.7542 23.1842L24.7542 23.1842L24.7542 23.1842L24.7542 23.1844C24.7213 23.3053 24.6864 23.4338 24.6645 23.5218C24.6271 23.6712 24.4411 23.9685 24.3306 24.0432C24.2858 24.0732 24.2288 24.1274 24.1695 24.1837C24.0814 24.2674 23.9881 24.356 23.922 24.3778C23.8107 24.4152 23.7352 24.1171 23.7726 23.9685C23.8107 23.8198 23.9959 23.4112 23.9959 23.4112C23.9959 23.4112 24.0333 23.1886 24.0699 23.0392C24.108 22.8913 24.5539 22.7053 24.5539 22.7053L24.852 22.1474C24.8519 22.1481 24.8531 22.1536 24.855 22.1626C24.8636 22.2036 24.8878 22.3183 24.8878 22.4073ZM10.1265 12.1817C10.1265 12.2277 10.1071 12.2628 10.0863 12.3006C10.0399 12.3848 9.98645 12.4817 10.1265 12.7397C10.3857 13.223 10.1631 13.4463 10.1631 13.4463C10.1631 13.4463 9.53038 13.8923 9.41908 13.967C9.30778 14.0417 9.01048 14.4503 9.19572 14.3382C9.38173 14.2269 9.60432 14.1156 9.41908 14.4129C9.36425 14.5008 9.29651 14.6047 9.22633 14.7123C9.05844 14.9698 8.87663 15.2486 8.82448 15.3803C8.7976 15.4482 8.7313 15.5503 8.65782 15.6634L8.65782 15.6635C8.5292 15.8615 8.37853 16.0935 8.37853 16.2356C8.37853 16.3332 8.35014 16.4735 8.32128 16.6161C8.28412 16.7997 8.24621 16.987 8.26723 17.0917C8.29239 17.2213 8.21006 17.6032 8.14526 17.7602C8.19558 15.67 8.89919 13.7436 10.0609 12.168C10.0991 12.1718 10.1265 12.1817 10.1265 12.1817ZM27.8469 18.4239C27.8566 18.2831 27.8662 18.1427 27.8662 17.9996C27.8662 14.4785 26.0061 11.3904 23.2245 9.64471C23.1964 9.66032 23.1646 9.67973 23.1307 9.70043C22.9774 9.79397 22.781 9.91381 22.6954 9.82767C22.5841 9.71637 22.3227 9.55552 22.3227 9.55552C22.5468 9.40611 21.8767 9.15836 21.8767 9.15836L21.0969 9.22087H20.5396C20.4907 9.22087 20.4204 9.20558 20.3414 9.18837C20.2395 9.1662 20.1229 9.14083 20.0182 9.14083C19.889 9.14083 19.6308 9.22422 19.4363 9.28703C19.3531 9.31389 19.2816 9.33698 19.2368 9.34817C19.1785 9.36269 19.0904 9.40143 18.9961 9.44289C18.8527 9.50597 18.6949 9.57534 18.6057 9.57534C18.4578 9.57534 18.2337 9.85587 18.2337 9.85587C18.2337 9.85587 17.9737 10.3316 18.1978 10.2568C18.4197 10.1821 18.7177 10.1783 18.7535 10.2904C18.7719 10.3436 18.7984 10.4138 18.8251 10.4847C18.854 10.5612 18.8832 10.6386 18.903 10.6967C18.9395 10.808 19.4602 10.8438 19.4602 10.8438C19.4602 10.8438 19.5349 10.6578 19.6462 10.5092C19.7575 10.3605 19.8688 10.1745 19.8688 10.1745C19.8688 10.1745 20.0548 10.5465 20.0922 10.6578C20.1287 10.7699 20.0175 11.1038 20.0175 11.1038C20.0175 11.1038 19.6089 11.3637 19.4968 11.3637C19.3847 11.3637 18.752 10.8057 18.752 10.8057C18.5294 10.8804 18.3434 10.9925 18.3434 10.9925C18.0835 11.2532 17.8228 11.4758 17.8228 11.4758C17.8228 11.4758 17.5979 11.5505 17.45 11.6618C17.3833 11.7117 17.282 11.744 17.1824 11.7757C17.06 11.8147 16.9404 11.8528 16.8912 11.9217C16.706 12.1817 16.9629 12.3677 16.9629 12.3677L16.7342 12.665L16.5749 12.777L16.0313 12.8891L15.7058 12.944C15.7424 13.0553 15.67 13.409 15.67 13.409V14.0394C15.67 14.0394 16.2067 14.1881 16.3187 14.1881C16.3351 14.1881 16.3549 14.1889 16.3774 14.1898C16.5082 14.1952 16.7279 14.2043 16.8554 14.0768C17.0025 13.9281 17.2449 13.5935 17.3189 13.4822C17.3928 13.3709 17.4934 13.2596 17.7176 13.1849C17.8472 13.1416 17.9118 13.0857 17.9654 13.0391C18.0035 13.0061 18.0362 12.9778 18.0827 12.9623C18.1948 12.9249 18.6323 12.8502 18.6323 12.8502C18.6323 12.8502 18.8908 13.037 19.0013 13.1109C19.0141 13.1196 19.0166 13.1331 19.0197 13.1501C19.0294 13.2029 19.0454 13.2901 19.3985 13.3754V13.6697L19.8932 13.6323L19.6691 13.335L19.631 13.3251L19.2003 12.8891L19.1682 12.5544C19.1682 12.5544 19.6264 12.8144 19.775 12.8891C19.9237 12.963 20.2408 13.1856 20.2408 13.1856L20.4611 13.7055L20.7584 14.0684C20.6586 13.9441 20.4123 13.5935 20.7965 13.5935C20.7965 13.5935 21.1502 13.6308 21.2615 13.5935C21.3736 13.5569 21.4742 13.5203 21.6221 13.4456C21.6946 13.4091 21.6824 13.3286 21.6681 13.234C21.653 13.1348 21.6356 13.0202 21.7113 12.9249C21.8607 12.7389 22.0543 12.6642 22.1656 12.6276C22.2777 12.5903 22.652 12.4043 22.652 12.4043L23.0636 12.479C22.8784 12.6276 22.6566 12.8502 22.8044 12.8136C22.9531 12.7763 23.2893 12.9623 23.4372 13.0736C23.5858 13.1849 23.4745 13.4456 23.4745 13.4456C23.4745 13.4456 23.0659 13.4082 22.806 13.3709C22.5453 13.3343 22.1359 13.4082 22.1359 13.4082L21.802 13.5935C21.802 13.5935 21.5787 13.6682 21.616 13.8534C21.6526 14.0394 21.802 14.2635 21.9507 14.4488C21.984 14.4908 22.0154 14.5347 22.0455 14.5766C22.1489 14.7207 22.2355 14.8413 22.3211 14.7834C22.434 14.7087 22.806 14.4861 22.806 14.4861C22.806 14.4861 22.7305 14.7461 22.7686 14.9321C22.806 15.1173 22.806 15.378 22.806 15.378C22.806 15.378 22.434 15.378 22.5453 15.4535C22.6289 15.5083 22.7401 15.6832 22.8173 15.8047C22.8421 15.8437 22.8634 15.8772 22.8792 15.8995C23.2512 16.4193 24.0318 17.572 24.1065 17.7206C24.1375 17.784 24.1494 17.8613 24.161 17.9374C24.1769 18.0408 24.1924 18.142 24.2551 18.2039C24.4777 18.4273 24.9237 18.2039 25.035 18.13C25.0699 18.1072 25.13 18.0732 25.1996 18.034C25.3532 17.9473 25.553 17.8346 25.6296 17.758C25.6743 17.7138 25.6954 17.6929 25.7186 17.6746C25.7538 17.6467 25.7936 17.6246 25.9284 17.5354C26.151 17.3867 26.2996 17.2747 26.1883 17.1634C26.077 17.0521 25.8544 16.6427 25.8544 16.6427C25.5183 16.7174 25.1844 16.5314 25.1844 16.4201C25.1844 16.3088 24.8871 15.8629 24.8871 15.8629C24.8871 15.8629 24.9237 15.7889 25.1844 15.9368C25.2832 15.993 25.3765 16.0706 25.4663 16.1453C25.6139 16.2683 25.7524 16.3835 25.8918 16.3835C26.0979 16.3835 26.208 16.4469 26.4301 16.5749C26.4479 16.5852 26.4663 16.5958 26.4856 16.6069C26.6295 16.6885 26.728 16.7816 26.8124 16.8613C26.8809 16.9261 26.94 16.982 27.0063 17.0155C27.1549 17.0902 27.3783 17.3875 27.3783 17.3875C27.3783 17.3875 27.6017 17.9081 27.6382 18.0575C27.6547 18.1217 27.7052 18.2415 27.7576 18.3657C27.7855 18.4317 27.8139 18.499 27.838 18.5599C27.8408 18.5145 27.8438 18.4692 27.8469 18.4239Z" fill="#383D38"/>
</svg>
