<svg width="36" height="36" viewBox="0 0 36 36" fill="none" xmlns="http://www.w3.org/2000/svg">
<path d="M35.9894 17.5574C35.9894 7.86071 27.9329 0 17.9947 0C8.05651 0 0 7.86071 0 17.5574C0 27.254 8.05651 35.1148 17.9947 35.1148C27.9329 35.1148 35.9894 27.254 35.9894 17.5574Z" fill="#383D38"/>
<path d="M29.3257 13.9191C29.184 12.5854 28.8793 11.1111 27.7577 10.3363C26.889 9.73547 25.7472 9.71325 24.6812 9.71449C22.428 9.71449 20.1734 9.71819 17.9201 9.71943C15.7528 9.7219 13.5855 9.72313 11.4182 9.7256C10.5128 9.7256 9.63276 9.65774 8.79189 10.0402C8.06988 10.3684 7.50466 10.9927 7.16452 11.6872C6.69287 12.6533 6.59424 13.7476 6.53734 14.816C6.43239 16.7616 6.44377 18.7122 6.56895 20.6565C6.66126 22.0753 6.89518 23.6434 8.0193 24.5478C9.0157 25.3485 10.4218 25.3879 11.7141 25.3892C15.816 25.3929 19.9193 25.3966 24.0225 25.399C24.5485 25.4003 25.0973 25.3904 25.6334 25.3337C26.688 25.2226 27.6932 24.9278 28.371 24.1653C29.055 23.3967 29.2308 22.327 29.3345 21.3141C29.5874 18.8565 29.5849 16.3755 29.3257 13.9191ZM15.548 21.002V14.1115L21.663 17.5561L15.548 21.002Z" fill="white"/>
</svg>
